<?xml version="1.0" encoding="UTF-8"?>
<svg width="75px" height="57px" viewBox="0 0 75 57" version="1.1" xmlns="http://www.w3.org/2000/svg" xmlns:xlink="http://www.w3.org/1999/xlink">
    <!-- Generator: Sketch 47.1 (45422) - http://www.bohemiancoding.com/sketch -->
    <title>BVD</title>
    <desc>Created with Sketch.</desc>
    <defs></defs>
    <g id="Page-1" stroke="none" stroke-width="1" fill="none" fill-rule="evenodd">
        <g id="Desktop-HD" transform="translate(-898.000000, -2641.000000)" fill-rule="nonzero" fill="#C8A4C3">
            <g id="Group-6" transform="translate(467.000000, 2632.000000)">
                <g id="BVD" transform="translate(431.000000, 9.000000)">
                    <path d="M49.5141676,0.26552795 C48.8883943,0.179259376 48.2569631,0.116518594 47.6198739,0.0728241214 C46.9216784,0.0235277931 46.2223513,0 45.5139715,0 L23.6628293,0 C23.4896949,0 23.3176921,0 23.1445578,0 L0,0 L0,57 L23.1445578,57 C23.3527717,57 23.5587224,57 23.764673,57 L23.764673,57 L45.5139715,57 C61.7388123,57 75,44.1975195 75,28.5425741 C75,14.1177962 63.866215,2.16231622 49.5141676,0.26552795 Z M22.8639217,1.62789921 L22.8639217,26.6648321 L12.7644165,26.6648321 L2.29035276,1.62789921 L22.8639217,1.62789921 Z M22.8639217,28.2143054 L22.8639217,50.8043478 L13.4116902,28.2143054 L22.8639217,28.2143054 Z M1.64760554,4.58007705 L10.965177,26.6648321 L1.64760554,26.6648321 L1.64760554,4.58007705 Z M1.64760554,55.3687397 L1.64760554,28.2143054 L11.6192402,28.2143054 L22.8639217,54.8656931 L23.0755303,55.3687397 L1.64760554,55.3687397 Z M45.5139715,1.63013995 C45.9967863,1.63013995 46.4773379,1.64209057 46.9556263,1.66599182 L40.3391774,17.5394095 C40.5759151,16.40954 40.692727,15.2582663 40.6877093,14.1043518 C40.6877093,8.09468119 37.8021365,3.80478025 32.5560518,1.63013995 L45.5139715,1.63013995 Z M24.5115272,1.65814923 C33.7906243,2.05476059 39.0401038,6.55865241 39.0401038,14.1043518 C39.0401038,21.7318382 33.7940191,26.2379708 24.5115272,26.6345821 L24.5115272,1.65814923 Z M38.5240955,21.8886901 L35.5819427,28.9537503 C33.7713872,28.143722 31.6722744,27.5891383 29.3230785,27.3168881 C33.4839615,26.6155358 36.6162226,24.7299513 38.5240955,21.8886901 Z M24.5115272,54.7435726 L24.5115272,28.2355924 C28.6984369,28.3689166 32.2063882,29.1195652 34.9629591,30.4326401 L24.6710824,55.1244988 L24.5115272,54.7435726 Z M36.4453514,31.2370666 C40.1739642,33.5282255 42.1701017,37.0697185 42.1701017,41.6688419 C42.1701017,49.6010693 36.4544042,54.4332298 26.3175564,55.2466192 L36.4453514,31.2370666 Z M45.5139715,55.3687397 L33.8585202,55.3687397 C40.2407284,53.0641363 43.7362322,48.3742629 43.7362322,41.750629 C43.7362322,36.3549218 41.3802468,32.1994654 37.0892302,29.716723 L48.8544464,1.82620489 C62.6124053,3.42721519 73.3523945,14.7945004 73.3523945,28.5403334 C73.3523945,43.3001022 60.8335345,55.3687397 45.5139715,55.3687397 Z" id="Shape"></path>
                </g>
            </g>
        </g>
    </g>
</svg>