<?xml version="1.0" encoding="UTF-8"?>
<svg width="132px" height="10px" viewBox="0 0 132 10" version="1.1" xmlns="http://www.w3.org/2000/svg" xmlns:xlink="http://www.w3.org/1999/xlink">
    <!-- Generator: Sketch 47.1 (45422) - http://www.bohemiancoding.com/sketch -->
    <title>HarriganStudio</title>
    <desc>Created with Sketch.</desc>
    <defs></defs>
    <g id="Page-1" stroke="none" stroke-width="1" fill="none" fill-rule="evenodd">
        <g id="Desktop-HD" transform="translate(-9.000000, -10.000000)" fill="#C8A4C3">
            <path d="M9,19.8342541 L10.71755,19.8342541 L10.71755,15.7596685 L15.3814662,15.7596685 L15.3814662,19.8342541 L17.0990162,19.8342541 L17.0990162,10.1657459 L15.3814662,10.1657459 L15.3814662,14.1850829 L10.71755,14.1850829 L10.71755,10.1657459 L9,10.1657459 L9,19.8342541 Z M18.7746747,19.8342541 L23.0755316,10.0966851 L24.6674072,10.0966851 L28.968264,19.8342541 L27.1529673,19.8342541 L26.161536,17.5 L21.5395113,17.5 L20.5341162,19.8342541 L18.7746747,19.8342541 Z M22.1678832,15.9944751 L25.5331641,15.9944751 L23.8435417,12.1270718 L22.1678832,15.9944751 Z M30.6439226,19.8342541 L30.6439226,10.1657459 L35.0006347,10.1657459 C36.229451,10.1657459 37.1929546,10.5248619 37.8213266,11.1325967 C38.3379879,11.6574586 38.6312282,12.3756906 38.6312282,13.218232 L38.6312282,13.2458564 C38.6312282,14.8342541 37.6677245,15.7872928 36.2992701,16.1740331 L38.9384322,19.8342541 L36.9136782,19.8342541 L34.511901,16.4640884 L32.3614725,16.4640884 L32.3614725,19.8342541 L30.6439226,19.8342541 Z M32.3614725,14.9585635 L34.8749603,14.9585635 C36.1037766,14.9585635 36.8857506,14.3232044 36.8857506,13.3425414 L36.8857506,13.3149171 C36.8857506,12.2790055 36.1317042,11.7127072 34.8609965,11.7127072 L32.3614725,11.7127072 L32.3614725,14.9585635 Z M40.7397652,19.8342541 L40.7397652,10.1657459 L45.0964773,10.1657459 C46.3252936,10.1657459 47.2887972,10.5248619 47.9171692,11.1325967 C48.4338305,11.6574586 48.7270708,12.3756906 48.7270708,13.218232 L48.7270708,13.2458564 C48.7270708,14.8342541 47.7635671,15.7872928 46.3951127,16.1740331 L49.0342748,19.8342541 L47.0095208,19.8342541 L44.6077436,16.4640884 L42.4573151,16.4640884 L42.4573151,19.8342541 L40.7397652,19.8342541 Z M42.4573151,14.9585635 L44.9708029,14.9585635 C46.1996192,14.9585635 46.9815931,14.3232044 46.9815931,13.3425414 L46.9815931,13.3149171 C46.9815931,12.2790055 46.2275468,11.7127072 44.9568391,11.7127072 L42.4573151,11.7127072 L42.4573151,14.9585635 Z M50.9333545,19.8342541 L52.6509045,19.8342541 L52.6509045,10.1657459 L50.9333545,10.1657459 L50.9333545,19.8342541 Z M59.8981276,20 C61.6296414,20 63.0120597,19.3093923 63.9755633,18.4944751 L63.9755633,14.4337017 L59.8143447,14.4337017 L59.8143447,15.9116022 L62.3138686,15.9116022 L62.3138686,17.7209945 C61.7134243,18.1629834 60.875595,18.4530387 59.9539829,18.4530387 C57.9571565,18.4530387 56.6305935,16.9889503 56.6305935,15 L56.6305935,14.9723757 C56.6305935,13.121547 57.9990479,11.5607735 59.8003808,11.5607735 C61.0431609,11.5607735 61.7832434,11.961326 62.5372897,12.5966851 L63.6264678,11.3121547 C62.6210727,10.4696133 61.5737861,10 59.8701999,10 C56.9238337,10 54.8292606,12.2928177 54.8292606,15 L54.8292606,15.0276243 C54.8292606,17.8453039 56.8400508,20 59.8981276,20 Z M65.3719454,19.8342541 L69.6728023,10.0966851 L71.2646779,10.0966851 L75.5655348,19.8342541 L73.750238,19.8342541 L72.7588067,17.5 L68.136782,17.5 L67.1313869,19.8342541 L65.3719454,19.8342541 Z M68.7651539,15.9944751 L72.1304348,15.9944751 L70.4408124,12.1270718 L68.7651539,15.9944751 Z M77.2411933,19.8342541 L78.9308156,19.8342541 L78.9308156,12.9558011 L84.3208505,19.8342541 L85.7591241,19.8342541 L85.7591241,10.1657459 L84.0695017,10.1657459 L84.0695017,16.8508287 L78.8330689,10.1657459 L77.2411933,10.1657459 L77.2411933,19.8342541 Z M91.7775309,19.9723757 C93.6626468,19.9723757 95.0171374,18.8950276 95.0171374,17.3342541 L95.0171374,17.3066298 C95.0171374,15.8977901 94.0675976,15.0966851 91.8054586,14.640884 C89.4874643,14.1712707 88.9568391,13.5497238 88.9568391,12.5276243 L88.9568391,12.5 C88.9568391,11.4917127 89.9063789,10.6767956 91.3446525,10.6767956 C92.4198667,10.6767956 93.3414789,10.980663 94.2630911,11.7679558 L94.7238972,11.2016575 C93.7324659,10.4143646 92.7968899,10.0276243 91.3725801,10.0276243 C89.5572834,10.0276243 88.2307204,11.1325967 88.2307204,12.5690608 L88.2307204,12.5966851 C88.2307204,14.0607735 89.1802602,14.8480663 91.5261822,15.3176796 C93.7464297,15.7596685 94.2910187,16.3535912 94.2910187,17.3756906 L94.2910187,17.4033149 C94.2910187,18.5082873 93.2856236,19.3232044 91.8194224,19.3232044 C90.3811488,19.3232044 89.3897175,18.8674033 88.3145033,17.8867403 L87.8397334,18.4254144 C89.0126944,19.461326 90.213583,19.9723757 91.7775309,19.9723757 Z M99.9044748,19.8342541 L100.630593,19.8342541 L100.630593,10.8287293 L104.037766,10.8287293 L104.037766,10.1657459 L96.4973024,10.1657459 L96.4973024,10.8287293 L99.9044748,10.8287293 L99.9044748,19.8342541 Z M110.098064,19.9861878 C112.471914,19.9861878 114.105681,18.5082873 114.105681,15.7320442 L114.105681,10.1657459 L113.379562,10.1657459 L113.379562,15.8149171 C113.379562,18.1491713 112.108854,19.3370166 110.125992,19.3370166 C108.059346,19.3370166 106.816566,18.0248619 106.816566,15.7458564 L106.816566,10.1657459 L106.090447,10.1657459 L106.090447,15.8149171 C106.090447,18.5220994 107.752142,19.9861878 110.098064,19.9861878 Z M116.856553,19.8342541 L116.856553,10.1657459 L120.110124,10.1657459 C123.182164,10.1657459 125.304665,12.2513812 125.304665,14.9723757 L125.304665,15 C125.304665,17.7209945 123.182164,19.8342541 120.110124,19.8342541 L116.856553,19.8342541 Z M117.582672,19.1712707 L120.110124,19.1712707 C122.833069,19.1712707 124.550619,17.3342541 124.550619,15.0276243 L124.550619,15 C124.550619,12.7071823 122.833069,10.8287293 120.110124,10.8287293 L117.582672,10.8287293 L117.582672,19.1712707 Z M127.874008,19.8342541 L128.600127,19.8342541 L128.600127,10.1657459 L127.874008,10.1657459 L127.874008,19.8342541 Z M136.070771,20 C133.110441,20 131.16947,17.6657459 131.16947,15.0276243 L131.16947,15 C131.16947,12.3618785 133.138369,10 136.098699,10 C139.059029,10 141,12.3342541 141,14.9723757 L141,15 C141,17.6381215 139.031101,20 136.070771,20 Z M136.098699,19.3508287 C138.51444,19.3508287 140.245954,17.4171271 140.245954,15.0276243 L140.245954,15 C140.245954,12.6104972 138.486512,10.6491713 136.070771,10.6491713 C133.65503,10.6491713 131.923516,12.5828729 131.923516,14.9723757 L131.923516,15 C131.923516,17.3895028 133.682958,19.3508287 136.098699,19.3508287 Z" id="HarriganStudio"></path>
        </g>
    </g>
</svg>