<?xml version="1.0" encoding="UTF-8"?>
<svg width="111px" height="73px" viewBox="0 0 111 73" version="1.1" xmlns="http://www.w3.org/2000/svg" xmlns:xlink="http://www.w3.org/1999/xlink">
    <!-- Generator: Sketch 47.1 (45422) - http://www.bohemiancoding.com/sketch -->
    <title>Mathieu</title>
    <desc>Created with Sketch.</desc>
    <defs></defs>
    <g id="Page-1" stroke="none" stroke-width="1" fill="none" fill-rule="evenodd">
        <g id="Desktop-HD" transform="translate(-468.000000, -2633.000000)" fill="#C8A4C3">
            <g id="Group-6" transform="translate(467.000000, 2632.000000)">
                <g id="Mathieu" transform="translate(0.000000, 1.000000)">
                    <g id="Page-1" transform="translate(22.000000, 0.000000)">
                        <polygon id="Fill-1" points="21 47 36.5880814 47 53 14.9638625 45.0769815 0"></polygon>
                        <polygon id="Fill-2" points="0 47 15.5880814 47 32 14.9638625 24.0769815 0"></polygon>
                        <polygon id="Fill-3" points="41 47 69 47 69 46.9986378 54.9996566 20"></polygon>
                    </g>
                    <path d="M1.582,70 L2.282,70 L2.282,61.488 L6.16,67.13 L6.216,67.13 L10.094,61.488 L10.094,70 L10.822,70 L10.822,60.2 L10.136,60.2 L6.202,65.996 L2.268,60.2 L1.582,60.2 L1.582,70 Z M15.75,70.168 C14.42,70.168 12.992,69.412 12.992,67.928 L12.992,67.9 C12.992,66.416 14.266,65.576 16.114,65.576 C17.108,65.576 17.794,65.702 18.48,65.884 L18.48,65.576 C18.48,64.134 17.598,63.392 16.128,63.392 C15.26,63.392 14.546,63.63 13.888,63.966 L13.636,63.364 C14.42,63 15.19,62.748 16.17,62.748 C17.136,62.748 17.906,63.014 18.424,63.532 C18.9,64.008 19.152,64.666 19.152,65.548 L19.152,70 L18.48,70 L18.48,68.81 C17.99,69.496 17.108,70.168 15.75,70.168 Z M15.792,69.524 C17.248,69.524 18.494,68.628 18.494,67.326 L18.494,66.514 C17.892,66.36 17.094,66.192 16.072,66.192 C14.56,66.192 13.72,66.864 13.72,67.858 L13.72,67.886 C13.72,68.922 14.7,69.524 15.792,69.524 Z M23.926,70.126 C24.374,70.126 24.724,70.042 25.088,69.874 L25.088,69.23 C24.682,69.412 24.388,69.482 24.038,69.482 C23.212,69.482 22.61,69.118 22.61,68.096 L22.61,63.49 L25.116,63.49 L25.116,62.86 L22.61,62.86 L22.61,60.578 L21.924,60.578 L21.924,62.86 L20.888,62.86 L20.888,63.49 L21.924,63.49 L21.924,68.166 C21.924,69.524 22.82,70.126 23.926,70.126 Z M27.146,70 L27.832,70 L27.832,65.87 C27.832,64.386 28.91,63.322 30.31,63.322 C31.752,63.322 32.578,64.288 32.578,65.758 L32.578,70 L33.264,70 L33.264,65.632 C33.264,63.924 32.214,62.692 30.408,62.692 C29.106,62.692 28.308,63.35 27.832,64.19 L27.832,59.78 L27.146,59.78 L27.146,70 Z M35.742,60.998 L36.596,60.998 L36.596,60.06 L35.742,60.06 L35.742,60.998 Z M35.826,70 L36.512,70 L36.512,62.86 L35.826,62.86 L35.826,70 Z M42.224,70.168 C40.348,70.168 38.724,68.67 38.724,66.444 L38.724,66.416 C38.724,64.344 40.18,62.692 42.112,62.692 C44.114,62.692 45.388,64.316 45.388,66.43 C45.388,66.556 45.388,66.598 45.374,66.71 L39.452,66.71 C39.578,68.488 40.852,69.524 42.252,69.524 C43.358,69.524 44.114,69.034 44.702,68.404 L45.178,68.824 C44.45,69.608 43.596,70.168 42.224,70.168 Z M39.452,66.094 L44.646,66.094 C44.548,64.652 43.722,63.322 42.084,63.322 C40.67,63.322 39.578,64.512 39.452,66.094 Z M50.106,70.168 C51.408,70.168 52.206,69.51 52.682,68.67 L52.682,70 L53.368,70 L53.368,62.86 L52.682,62.86 L52.682,66.99 C52.682,68.474 51.604,69.538 50.204,69.538 C48.762,69.538 47.936,68.572 47.936,67.102 L47.936,62.86 L47.25,62.86 L47.25,67.228 C47.25,68.936 48.3,70.168 50.106,70.168 Z M60.13,70 L67.004,70 L67.004,68.432 L61.852,68.432 L61.852,60.2 L60.13,60.2 L60.13,70 Z M71.848,70.168 C69.706,70.168 68.054,68.614 68.054,66.332 L68.054,66.304 C68.054,64.19 69.552,62.454 71.666,62.454 C74.018,62.454 75.208,64.302 75.208,66.43 C75.208,66.584 75.194,66.738 75.18,66.906 L69.748,66.906 C69.93,68.11 70.784,68.782 71.876,68.782 C72.702,68.782 73.29,68.474 73.878,67.9 L74.872,68.782 C74.172,69.622 73.206,70.168 71.848,70.168 Z M69.734,65.786 L73.528,65.786 C73.416,64.694 72.772,63.84 71.652,63.84 C70.616,63.84 69.888,64.638 69.734,65.786 Z M80.206,72.268 C78.988,72.268 77.854,71.96 76.902,71.386 L77.532,70.112 C78.316,70.602 79.156,70.896 80.164,70.896 C81.676,70.896 82.502,70.112 82.502,68.628 L82.502,68.054 C81.886,68.852 81.116,69.412 79.898,69.412 C78.162,69.412 76.538,68.124 76.538,65.954 L76.538,65.926 C76.538,63.742 78.176,62.454 79.898,62.454 C81.144,62.454 81.914,63.028 82.488,63.714 L82.488,62.608 L84.182,62.608 L84.182,68.488 C84.182,69.734 83.86,70.658 83.244,71.274 C82.572,71.946 81.536,72.268 80.206,72.268 Z M80.346,67.984 C81.522,67.984 82.516,67.144 82.516,65.954 L82.516,65.926 C82.516,64.708 81.522,63.882 80.346,63.882 C79.17,63.882 78.246,64.694 78.246,65.912 L78.246,65.94 C78.246,67.158 79.184,67.984 80.346,67.984 Z M92.498,70 L90.818,70 L90.818,69.09 C90.314,69.692 89.544,70.154 88.424,70.154 C87.024,70.154 85.792,69.356 85.792,67.872 L85.792,67.844 C85.792,66.206 87.066,65.422 88.788,65.422 C89.684,65.422 90.258,65.548 90.832,65.73 L90.832,65.59 C90.832,64.568 90.188,64.008 89.012,64.008 C88.186,64.008 87.57,64.19 86.898,64.47 L86.436,63.112 C87.248,62.748 88.046,62.496 89.25,62.496 C91.434,62.496 92.498,63.644 92.498,65.618 L92.498,70 Z M90.86,67.326 L90.86,66.906 C90.426,66.738 89.824,66.612 89.166,66.612 C88.102,66.612 87.472,67.046 87.472,67.76 L87.472,67.788 C87.472,68.488 88.102,68.88 88.9,68.88 C90.02,68.88 90.86,68.25 90.86,67.326 Z M97.062,70.154 C98.21,70.154 98.896,69.552 99.372,68.852 L99.372,70 L101.066,70 L101.066,62.608 L99.372,62.608 L99.372,66.78 C99.372,67.928 98.686,68.614 97.706,68.614 C96.698,68.614 96.124,67.956 96.124,66.808 L96.124,62.608 L94.43,62.608 L94.43,67.312 C94.43,69.034 95.396,70.154 97.062,70.154 Z M103.292,70 L104.986,70 L104.986,59.78 L103.292,59.78 L103.292,70 Z M109.676,70.126 C110.306,70.126 110.782,69.986 111.202,69.748 L111.202,68.362 C110.866,68.53 110.53,68.614 110.152,68.614 C109.578,68.614 109.242,68.348 109.242,67.69 L109.242,64.064 L111.23,64.064 L111.23,62.608 L109.242,62.608 L109.242,60.578 L107.548,60.578 L107.548,62.608 L106.61,62.608 L106.61,64.064 L107.548,64.064 L107.548,67.956 C107.548,69.58 108.43,70.126 109.676,70.126 Z" id="Mathieu-Legault"></path>
                </g>
            </g>
        </g>
    </g>
</svg>