<?xml version="1.0" encoding="UTF-8"?>
<svg width="89px" height="62px" viewBox="0 0 89 62" version="1.1" xmlns="http://www.w3.org/2000/svg" xmlns:xlink="http://www.w3.org/1999/xlink">
    <!-- Generator: Sketch 47.1 (45422) - http://www.bohemiancoding.com/sketch -->
    <title>Nazir</title>
    <desc>Created with Sketch.</desc>
    <defs></defs>
    <g id="Page-1" stroke="none" stroke-width="1" fill="none" fill-rule="evenodd">
        <g id="Desktop-HD" transform="translate(-631.000000, -2642.000000)" fill="#C8A4C3">
            <g id="Group-6" transform="translate(467.000000, 2632.000000)">
                <g id="Nazir" transform="translate(164.000000, 10.000000)">
                    <g id="arturo" fill-rule="nonzero">
                        <path d="M39,0 C34.4523985,7.16044776 29.904797,14.3067164 25.3571956,21.4671642 C22.0328413,26.6992537 18.6940959,31.9455224 15.3697417,37.1776119 C15.197048,37.461194 14.995572,37.730597 14.8228782,38 C10.0738007,38 5.32472325,38 0.575645756,38 C0.388560886,38 0.187084871,37.9149254 0,37.858209 C0.129520295,37.6880597 0.273431734,37.5320896 0.388560886,37.3619403 C4.92177122,30.2440299 9.44059041,23.1261194 13.9738007,16.008209 C17.3701107,10.6626866 20.7808118,5.33134328 24.1771218,0 C29.1132841,0 34.0638376,0 39,0 Z" id="Shape"></path>
                        <path d="M61,38 C64.7849246,31.8439716 68.5557789,25.6737589 72.3407035,19.5177305 C72.8894472,18.6099291 73.480402,17.7304965 73.9869347,16.7943262 C74.3105528,16.212766 74.6763819,16 75.3658291,16 C79.9105528,16.0283688 84.4552764,16.0141844 89,16.0141844 C89,16.0567376 89,16.1134752 89,16.1560284 C88.1979899,17.4184397 87.3819095,18.6808511 86.5939698,19.9716312 C82.8934673,25.9858156 79.1929648,32 75.4924623,38 C70.6663317,38 65.8261307,38 61,38 Z" id="Shape"></path>
                        <path d="M75,0 C71.2594622,5.81711873 67.5189243,11.6485301 63.7928287,17.4656489 C62.9118526,18.8377457 62.0453187,20.2098425 61.1499004,21.5533539 C61.0054781,21.767744 60.6733068,21.9821342 60.4277888,21.9821342 C55.7340637,22.0107195 51.0403386,21.9964268 46.3466135,21.9964268 C46.2599602,21.9964268 46.1733068,21.9821342 46,21.9678415 C46.2166335,21.6105246 46.4043825,21.2960858 46.5921315,21.0102323 C50.9536853,14.2212116 55.315239,7.432191 59.6912351,0.65746305 C59.8356574,0.443072925 59.9800797,0.2286828 60.124502,0 C65.0781873,0 70.0463147,0 75,0 Z" id="Shape"></path>
                        <path d="M24,38 C27.5097087,32.5459559 31.0194175,27.1060049 34.5291262,21.6519608 C35.9563107,19.4252451 37.3980583,17.1985294 39,15 C39,22.6666667 39,30.3333333 39,38 C34.0048544,38 28.9951456,38 24,38 Z" id="Shape"></path>
                    </g>
                    <path d="M7.494,61 L8.194,61 L8.194,52.292 L15.096,61 L15.642,61 L15.642,51.2 L14.942,51.2 L14.942,59.726 L8.18,51.2 L7.494,51.2 L7.494,61 Z M20.57,61.168 C19.24,61.168 17.812,60.412 17.812,58.928 L17.812,58.9 C17.812,57.416 19.086,56.576 20.934,56.576 C21.928,56.576 22.614,56.702 23.3,56.884 L23.3,56.576 C23.3,55.134 22.418,54.392 20.948,54.392 C20.08,54.392 19.366,54.63 18.708,54.966 L18.456,54.364 C19.24,54 20.01,53.748 20.99,53.748 C21.956,53.748 22.726,54.014 23.244,54.532 C23.72,55.008 23.972,55.666 23.972,56.548 L23.972,61 L23.3,61 L23.3,59.81 C22.81,60.496 21.928,61.168 20.57,61.168 Z M20.612,60.524 C22.068,60.524 23.314,59.628 23.314,58.326 L23.314,57.514 C22.712,57.36 21.914,57.192 20.892,57.192 C19.38,57.192 18.54,57.864 18.54,58.858 L18.54,58.886 C18.54,59.922 19.52,60.524 20.612,60.524 Z M25.946,61 L32.12,61 L32.12,60.384 L26.968,60.384 L32.12,54.252 L32.12,53.86 L26.142,53.86 L26.142,54.476 L31.098,54.476 L25.946,60.608 L25.946,61 Z M34.206,51.998 L35.06,51.998 L35.06,51.06 L34.206,51.06 L34.206,51.998 Z M34.29,61 L34.976,61 L34.976,53.86 L34.29,53.86 L34.29,61 Z M37.678,61 L38.364,61 L38.364,58.074 C38.364,55.75 39.806,54.504 41.458,54.504 L41.528,54.504 L41.528,53.748 C40.114,53.692 38.924,54.616 38.364,55.89 L38.364,53.86 L37.678,53.86 L37.678,61 Z M50.866,61.14 C52.924,61.14 54.366,60.048 54.366,58.214 L54.366,58.186 C54.366,56.562 53.288,55.82 51.216,55.316 C49.34,54.868 48.892,54.532 48.892,53.776 L48.892,53.748 C48.892,53.104 49.48,52.586 50.488,52.586 C51.384,52.586 52.266,52.936 53.148,53.594 L54.072,52.292 C53.078,51.494 51.944,51.06 50.516,51.06 C48.57,51.06 47.17,52.222 47.17,53.902 L47.17,53.93 C47.17,55.736 48.346,56.352 50.432,56.856 C52.252,57.276 52.644,57.654 52.644,58.354 L52.644,58.382 C52.644,59.124 51.972,59.614 50.908,59.614 C49.69,59.614 48.752,59.152 47.814,58.34 L46.778,59.572 C47.954,60.622 49.368,61.14 50.866,61.14 Z M62.402,61 L60.722,61 L60.722,60.09 C60.218,60.692 59.448,61.154 58.328,61.154 C56.928,61.154 55.696,60.356 55.696,58.872 L55.696,58.844 C55.696,57.206 56.97,56.422 58.692,56.422 C59.588,56.422 60.162,56.548 60.736,56.73 L60.736,56.59 C60.736,55.568 60.092,55.008 58.916,55.008 C58.09,55.008 57.474,55.19 56.802,55.47 L56.34,54.112 C57.152,53.748 57.95,53.496 59.154,53.496 C61.338,53.496 62.402,54.644 62.402,56.618 L62.402,61 Z M60.764,58.326 L60.764,57.906 C60.33,57.738 59.728,57.612 59.07,57.612 C58.006,57.612 57.376,58.046 57.376,58.76 L57.376,58.788 C57.376,59.488 58.006,59.88 58.804,59.88 C59.924,59.88 60.764,59.25 60.764,58.326 Z M64.516,61 L66.21,61 L66.21,50.78 L64.516,50.78 L64.516,61 Z M71.81,61.168 C69.668,61.168 68.016,59.614 68.016,57.332 L68.016,57.304 C68.016,55.19 69.514,53.454 71.628,53.454 C73.98,53.454 75.17,55.302 75.17,57.43 C75.17,57.584 75.156,57.738 75.142,57.906 L69.71,57.906 C69.892,59.11 70.746,59.782 71.838,59.782 C72.664,59.782 73.252,59.474 73.84,58.9 L74.834,59.782 C74.134,60.622 73.168,61.168 71.81,61.168 Z M69.696,56.786 L73.49,56.786 C73.378,55.694 72.734,54.84 71.614,54.84 C70.578,54.84 69.85,55.638 69.696,56.786 Z M76.878,61 L78.572,61 L78.572,58.886 L79.608,57.808 L81.834,61 L83.794,61 L80.756,56.618 L83.696,53.608 L81.638,53.608 L78.572,56.884 L78.572,50.78 L76.878,50.78 L76.878,61 Z" id="Nazir-Salek"></path>
                </g>
            </g>
        </g>
    </g>
</svg>