<?xml version="1.0" encoding="UTF-8"?>
<svg width="89px" height="62px" viewBox="0 0 89 62" version="1.1" xmlns="http://www.w3.org/2000/svg" xmlns:xlink="http://www.w3.org/1999/xlink">
    <!-- Generator: Sketch 47.1 (45422) - http://www.bohemiancoding.com/sketch -->
    <title>Nazir</title>
    <desc>Created with Sketch.</desc>
    <defs></defs>
    <g id="Page-1" stroke="none" stroke-width="1" fill="none" fill-rule="evenodd">
        <g id="Desktop-HD" transform="translate(-631.000000, -2642.000000)" fill="#C8A4C3">
            <g id="Group-6" transform="translate(467.000000, 2632.000000)">
                <g id="Nazir" transform="translate(164.000000, 10.000000)">
                    <g id="arturo" fill-rule="nonzero">
                        <path d="M39,0 C34.4523985,7.16044776 29.904797,14.3067164 25.3571956,21.4671642 C22.0328413,26.6992537 18.6940959,31.9455224 15.3697417,37.1776119 C15.197048,37.461194 14.995572,37.730597 14.8228782,38 C10.0738007,38 5.32472325,38 0.575645756,38 C0.388560886,38 0.187084871,37.9149254 0,37.858209 C0.129520295,37.6880597 0.273431734,37.5320896 0.388560886,37.3619403 C4.92177122,30.2440299 9.44059041,23.1261194 13.9738007,16.008209 C17.3701107,10.6626866 20.7808118,5.33134328 24.1771218,0 C29.1132841,0 34.0638376,0 39,0 Z" id="Shape"></path>
                        <path d="M61,38 C64.7849246,31.8439716 68.5557789,25.6737589 72.3407035,19.5177305 C72.8894472,18.6099291 73.480402,17.7304965 73.9869347,16.7943262 C74.3105528,16.212766 74.6763819,16 75.3658291,16 C79.9105528,16.0283688 84.4552764,16.0141844 89,16.0141844 C89,16.0567376 89,16.1134752 89,16.1560284 C88.1979899,17.4184397 87.3819095,18.6808511 86.5939698,19.9716312 C82.8934673,25.9858156 79.1929648,32 75.4924623,38 C70.6663317,38 65.8261307,38 61,38 Z" id="Shape"></path>
                        <path d="M75,0 C71.2594622,5.81711873 67.5189243,11.6485301 63.7928287,17.4656489 C62.9118526,18.8377457 62.0453187,20.2098425 61.1499004,21.5533539 C61.0054781,21.767744 60.6733068,21.9821342 60.4277888,21.9821342 C55.7340637,22.0107195 51.0403386,21.9964268 46.3466135,21.9964268 C46.2599602,21.9964268 46.1733068,21.9821342 46,21.9678415 C46.2166335,21.6105246 46.4043825,21.2960858 46.5921315,21.0102323 C50.9536853,14.2212116 55.315239,7.432191 59.6912351,0.65746305 C59.8356574,0.443072925 59.9800797,0.2286828 60.124502,0 C65.0781873,0 70.0463147,0 75,0 Z" id="Shape"></path>
                        <path d="M24,38 C27.5097087,32.5459559 31.0194175,27.1060049 34.5291262,21.6519608 C35.9563107,19.4252451 37.3980583,17.1985294 39,15 C39,22.6666667 39,30.3333333 39,38 C34.0048544,38 28.9951456,38 24,38 Z" id="Shape"></path>
                    </g>
                    <text id="Nazir-Salek" font-family="Gotham-Light, Gotham" font-size="14" font-weight="300">
                        <tspan x="6.038" y="61">Nazir </tspan>
                        <tspan x="46.176" y="61" font-family="Gotham-Medium, Gotham" font-weight="400">Salek</tspan>
                    </text>
                </g>
            </g>
        </g>
    </g>
</svg>