<?xml version="1.0" encoding="UTF-8"?>
<svg width="300px" height="74px" viewBox="0 0 300 74" version="1.1" xmlns="http://www.w3.org/2000/svg" xmlns:xlink="http://www.w3.org/1999/xlink">
    <!-- Generator: Sketch 47.1 (45422) - http://www.bohemiancoding.com/sketch -->
    <title>Searcher Logo and Subtitle</title>
    <desc>Created with Sketch.</desc>
    <defs></defs>
    <g id="Page-1" stroke="none" stroke-width="1" fill="none" fill-rule="evenodd">
        <g id="Desktop-HD" transform="translate(-571.000000, -220.000000)" fill="#FFFFFF">
            <g id="Searcher-Logo-and-Subtitle" transform="translate(571.000000, 220.000000)">
                <path d="M3.12329049,73.8342541 L4.86783113,73.8342541 L4.86783113,65.7403315 L7.99112162,65.7403315 L7.99112162,64.1657459 L0,64.1657459 L0,65.7403315 L3.12329049,65.7403315 L3.12329049,73.8342541 Z M12.4306325,73.8342541 L16.7638463,64.0966851 L18.3676982,64.0966851 L22.700912,73.8342541 L20.8719581,73.8342541 L19.8730679,71.5 L15.2162699,71.5 L14.2033109,73.8342541 L12.4306325,73.8342541 Z M15.8493694,69.9944751 L19.2399685,69.9944751 L17.5376345,66.1270718 L15.8493694,69.9944751 Z M29.1100655,73.8342541 L36.0178837,73.8342541 L36.0178837,72.2872928 L30.8405373,72.2872928 L30.8405373,64.1657459 L29.1100655,64.1657459 L29.1100655,73.8342541 Z M42.5395882,73.8342541 L49.9116793,73.8342541 L49.9116793,72.3149171 L44.27006,72.3149171 L44.27006,69.718232 L49.2082355,69.718232 L49.2082355,68.198895 L44.27006,68.198895 L44.27006,65.6850829 L49.8413349,65.6850829 L49.8413349,64.1657459 L42.5395882,64.1657459 L42.5395882,73.8342541 Z M60.1334982,73.9723757 C62.201623,73.9723757 63.6507173,72.8950276 63.6507173,71.0856354 L63.6507173,71.058011 C63.6507173,69.4558011 62.5674138,68.7237569 60.4852201,68.2265193 C58.5999907,67.7845304 58.1497867,67.4530387 58.1497867,66.7071823 L58.1497867,66.679558 C58.1497867,66.0441989 58.7406795,65.5331492 59.7536386,65.5331492 C60.6540466,65.5331492 61.5403858,65.878453 62.426725,66.5276243 L63.3552709,65.2430939 C62.3563807,64.4558011 61.2168017,64.0276243 59.7817763,64.0276243 C57.8262026,64.0276243 56.4193149,65.1740331 56.4193149,66.8314917 L56.4193149,66.859116 C56.4193149,68.640884 57.6011005,69.2486188 59.6973631,69.7458564 C61.526317,70.160221 61.9202455,70.5331492 61.9202455,71.2237569 L61.9202455,71.2513812 C61.9202455,71.9834254 61.2449394,72.4668508 60.1757049,72.4668508 C58.9517126,72.4668508 58.0090979,72.0110497 57.0664832,71.2099448 L56.0253864,72.4254144 C57.207172,73.461326 58.6281285,73.9723757 60.1334982,73.9723757 Z M84.0521485,74 C81.0273401,74 78.9170087,71.7486188 78.9170087,69.0276243 L78.9170087,69 C78.9170087,66.2790055 81.0554779,64 84.0802862,64 C87.1050946,64 89.215426,66.2513812 89.215426,68.9723757 L89.215426,69 C89.215426,71.7209945 87.0769569,74 84.0521485,74 Z M84.0802862,72.4392265 C86.03586,72.4392265 87.400541,70.9060773 87.400541,69.0276243 L87.400541,69 C87.400541,67.121547 86.0077223,65.5607735 84.0521485,65.5607735 C82.0965747,65.5607735 80.7318937,67.0939227 80.7318937,68.9723757 L80.7318937,69 C80.7318937,70.878453 82.1247125,72.4392265 84.0802862,72.4392265 Z M96.0325769,73.8342541 L97.7630487,73.8342541 L97.7630487,69.8977901 L102.729362,69.8977901 L102.729362,68.3508287 L97.7630487,68.3508287 L97.7630487,65.7127072 L103.362461,65.7127072 L103.362461,64.1657459 L96.0325769,64.1657459 L96.0325769,73.8342541 Z M118.924199,73.8342541 L120.626533,73.8342541 L120.626533,66.9558011 L126.057119,73.8342541 L127.506214,73.8342541 L127.506214,64.1657459 L125.80388,64.1657459 L125.80388,70.8508287 L120.528051,64.1657459 L118.924199,64.1657459 L118.924199,73.8342541 Z M139.458504,74 C136.433696,74 134.323365,71.7486188 134.323365,69.0276243 L134.323365,69 C134.323365,66.2790055 136.461834,64 139.486642,64 C142.51145,64 144.621782,66.2513812 144.621782,68.9723757 L144.621782,69 C144.621782,71.7209945 142.483313,74 139.458504,74 Z M139.486642,72.4392265 C141.442216,72.4392265 142.806897,70.9060773 142.806897,69.0276243 L142.806897,69 C142.806897,67.121547 141.414078,65.5607735 139.458504,65.5607735 C137.502931,65.5607735 136.13825,67.0939227 136.13825,68.9723757 L136.13825,69 C136.13825,70.878453 137.531068,72.4392265 139.486642,72.4392265 Z M151.438933,73.8342541 L151.438933,64.1657459 L155.828422,64.1657459 C157.066483,64.1657459 158.037236,64.5248619 158.670335,65.1325967 C159.190884,65.6574586 159.48633,66.3756906 159.48633,67.218232 L159.48633,67.2458564 C159.48633,68.8342541 158.515577,69.7872928 157.136828,70.1740331 L159.795845,73.8342541 L157.755858,73.8342541 L155.336011,70.4640884 L153.169405,70.4640884 L153.169405,73.8342541 L151.438933,73.8342541 Z M153.169405,68.9585635 L155.701802,68.9585635 C156.939863,68.9585635 157.72772,68.3232044 157.72772,67.3425414 L157.72772,67.3149171 C157.72772,66.2790055 156.968001,65.7127072 155.687733,65.7127072 L153.169405,65.7127072 L153.169405,68.9585635 Z M168.709259,73.8342541 L170.453799,73.8342541 L170.453799,65.7403315 L173.57709,65.7403315 L173.57709,64.1657459 L165.585968,64.1657459 L165.585968,65.7403315 L168.709259,65.7403315 L168.709259,73.8342541 Z M180.126932,73.8342541 L181.857404,73.8342541 L181.857404,69.7596685 L186.556408,69.7596685 L186.556408,73.8342541 L188.28688,73.8342541 L188.28688,64.1657459 L186.556408,64.1657459 L186.556408,68.1850829 L181.857404,68.1850829 L181.857404,64.1657459 L180.126932,64.1657459 L180.126932,73.8342541 Z M203.637585,73.8342541 L207.970799,64.0966851 L209.574651,64.0966851 L213.907864,73.8342541 L212.078911,73.8342541 L211.08002,71.5 L206.423222,71.5 L205.410263,73.8342541 L203.637585,73.8342541 Z M207.056322,69.9944751 L210.446921,69.9944751 L208.744587,66.1270718 L207.056322,69.9944751 Z M220.317018,73.8342541 L222.019352,73.8342541 L222.019352,66.9281768 L225.100436,71.4585635 L225.156711,71.4585635 L228.265933,66.9005525 L228.265933,73.8342541 L229.996405,73.8342541 L229.996405,64.1657459 L228.153382,64.1657459 L225.156711,68.7375691 L222.160041,64.1657459 L220.317018,64.1657459 L220.317018,73.8342541 Z M237.249691,73.8342541 L244.621782,73.8342541 L244.621782,72.3149171 L238.980163,72.3149171 L238.980163,69.718232 L243.918338,69.718232 L243.918338,68.198895 L238.980163,68.198895 L238.980163,65.6850829 L244.551438,65.6850829 L244.551438,64.1657459 L237.249691,64.1657459 L237.249691,73.8342541 Z M251.396726,73.8342541 L251.396726,64.1657459 L255.786216,64.1657459 C257.024277,64.1657459 257.995029,64.5248619 258.628128,65.1325967 C259.148677,65.6574586 259.444123,66.3756906 259.444123,67.218232 L259.444123,67.2458564 C259.444123,68.8342541 258.473371,69.7872928 257.094621,70.1740331 L259.753639,73.8342541 L257.713652,73.8342541 L255.293805,70.4640884 L253.127198,70.4640884 L253.127198,73.8342541 L251.396726,73.8342541 Z M253.127198,68.9585635 L255.659596,68.9585635 C256.897657,68.9585635 257.685514,68.3232044 257.685514,67.3425414 L257.685514,67.3149171 C257.685514,66.2790055 256.925794,65.7127072 255.645527,65.7127072 L253.127198,65.7127072 L253.127198,68.9585635 Z M266.387894,73.8342541 L268.118366,73.8342541 L268.118366,64.1657459 L266.387894,64.1657459 L266.387894,73.8342541 Z M280.042519,74 C281.885542,74 283.011052,73.3370166 284.03808,72.2872928 L282.926638,71.1823204 C282.082506,71.9558011 281.308718,72.4392265 280.098794,72.4392265 C278.213565,72.4392265 276.848884,70.8922652 276.848884,69 L276.848884,68.9723757 C276.848884,67.0801105 278.213565,65.5607735 280.098794,65.5607735 C281.224304,65.5607735 282.068437,66.0441989 282.856294,66.7624309 L283.967735,65.5055249 C283.025121,64.621547 281.927748,64 280.112863,64 C277.130261,64 275.033999,66.2513812 275.033999,69 L275.033999,69.0276243 C275.033999,71.8038674 277.172468,74 280.042519,74 Z M289.72972,73.8342541 L294.062934,64.0966851 L295.666786,64.0966851 L300,73.8342541 L298.171046,73.8342541 L297.172156,71.5 L292.515358,71.5 L291.502399,73.8342541 L289.72972,73.8342541 Z M293.148457,69.9944751 L296.539056,69.9944751 L294.836722,66.1270718 L293.148457,69.9944751 Z" id="Tales-of-North-Ameri"></path>
                <path d="M43.292067,42.3722628 C43.7359319,41.4306569 44.2432061,40.5518248 44.8138897,39.6729927 L45.0675268,39.6729927 C46.3991216,41.4934307 49.3793577,43 53.6277793,43 C61.4271205,43 67.1339555,38.7313869 67.1339555,30.9474453 C67.1339555,25.0467153 63.6464452,21.7824818 57.1152896,18.9576642 C52.2961845,16.8233577 51.281636,16.070073 51.281636,14.3124088 C51.281636,12.3664234 52.6132309,11.1737226 55.847104,11.1737226 C58.7005215,11.1737226 60.9198463,12.9313869 60.6662092,15.9445255 L68.2753225,16.070073 C69.1630524,11.4248175 70.1776009,6.84233577 71.2555586,2.32262774 L64.6609937,2.19708029 C64.0269009,3.07591241 63.5196267,3.70364964 62.7587153,4.51970803 L62.5050782,4.51970803 C61.2368927,2.7620438 58.2566566,1.56934307 54.7691463,1.56934307 C47.0966237,1.56934307 41.5166072,6.02627737 41.5166072,13.4335766 C41.5166072,18.7693431 44.3700247,22.5985401 50.4573154,25.2978102 C55.3398298,27.4948905 56.8616525,28.3737226 56.8616525,30.5708029 C56.8616525,32.6423358 55.5300576,33.8978102 52.2327752,33.8978102 C48.3013999,33.8978102 46.716168,31.7635036 46.7795773,27.9343066 L39.2972825,27.7459854 C38.3461433,32.4540146 37.141367,37.6642336 36,42.2467153 L43.292067,42.3722628 Z M80.5133132,26.1138686 C86.0933297,26.4277372 89.0735657,25.1094891 89.0735657,22.9751825 C89.0735657,21.5313869 87.9321987,20.9036496 86.0933297,20.9036496 C83.5569586,20.9036496 80.8937689,22.9124088 80.5133132,26.1138686 Z M93.702443,32.6423358 L95.0974472,39.2335766 C92.4342575,41.7445255 88.2492451,43 84.0642328,43 C76.7721658,43 71.2555586,38.919708 71.2555586,29.8175182 C71.2555586,19.459854 78.3573977,12.4919708 87.2346967,12.4919708 C93.2585781,12.4919708 97.7606368,15.6934307 97.7606368,22.0963504 C97.7606368,28.059854 93.3853967,31.6379562 84.6983256,31.6379562 C83.3667307,31.6379562 81.9717266,31.5751825 80.4499039,31.3868613 C80.2596761,33.5211679 82.1619544,34.7766423 85.9031018,34.7766423 C88.8199286,34.7766423 91.6733461,33.9605839 93.702443,32.6423358 Z M118.368652,25.6744526 C118.368652,23.2890511 116.212737,21.719708 114.120231,21.719708 C110.886357,21.719708 108.793851,25.1722628 108.793851,29.4408759 C108.793851,32.7051095 109.935218,33.7722628 111.964315,33.7722628 C114.754323,33.7722628 118.368652,29.5036496 118.368652,25.6744526 Z M118.622289,36.0948905 C116.593192,40.2379562 113.232501,42.9372263 108.85726,42.9372263 C103.530881,42.9372263 99.5360966,38.919708 99.5360966,31.0729927 C99.5360966,20.9036496 106.447708,12.6175182 113.930003,12.6175182 C116.529783,12.6175182 118.875926,13.6218978 120.207521,15.8189781 C121.095251,14.940146 121.665935,14.1240876 122.300027,13.0569343 L130.733461,13.2452555 C129.782322,16.6350365 128.450727,21.4686131 127.499588,25.7372263 C126.865495,28.6248175 126.421631,30.8846715 126.421631,31.8262774 C126.421631,33.2072993 127.055723,33.6467153 128.704365,33.5211679 L130.479824,33.3956204 L130.099369,40.3635036 C128.514137,42.1211679 126.421631,42.8744526 123.885259,42.8744526 C119.636838,42.8744526 118.305243,40.3635036 119.002745,36.1576642 L118.622289,36.0948905 Z M133.967335,21.8452555 L134.981883,13.2452555 C137.708482,13.2452555 142.717815,13.1824818 145.951688,13.0569343 L146.205325,13.2452555 L144.620093,19.8992701 L144.87373,20.0248175 C146.902827,15.0029197 149.31238,12.8058394 153.433983,12.8058394 C154.892396,12.8058394 155.970354,12.9941606 156.667856,13.3080292 C156.160582,15.9445255 154.828987,21.5941606 154.131485,24.2934307 C153.370574,24.1678832 152.419435,24.0423358 151.341477,24.0423358 C148.044194,24.0423358 146.395553,25.4233577 145.82487,31.9518248 L144.93714,42.2467153 C143.542136,42.3722628 141.766676,42.4350365 140.054625,42.4350365 C135.298929,42.4350365 133.269833,41.6189781 133.269833,39.3591241 C133.269833,38.480292 133.586879,37.350365 134.220972,35.9693431 L137.074389,29.5036496 L137.771891,23.4145985 L133.967335,21.8452555 Z M176.071095,32.4540146 L178.227011,39.1708029 C176.895416,41.0540146 172.900631,42.9372263 168.525391,42.9372263 C161.677189,42.9372263 156.35081,38.480292 156.35081,30.2569343 C156.35081,20.4014599 162.691738,12.6175182 172.964041,12.6175182 C175.563821,12.6175182 178.987922,13.119708 181.207247,13.9985401 C180.699973,16.8233577 179.17815,21.5313869 177.973374,24.1051095 C176.641779,23.2262774 173.598133,22.2846715 171.695855,22.2846715 C168.65221,22.2846715 165.98902,24.7956204 165.98902,28.4364964 C165.98902,32.140146 168.144935,33.7722628 171.125172,33.7722628 C172.837222,33.7722628 174.549273,33.2072993 176.071095,32.4540146 Z M183.743618,8.28613139 L184.44112,0.313868613 C188.752951,0.313868613 195.474334,0.188321168 198.644798,0 L198.961845,0.313868613 C197.566841,6.71678832 196.045018,12.3664234 193.318419,17.7021898 L193.572056,17.8277372 C195.791381,14.5635036 198.835026,12.6175182 202.89322,12.6175182 C209.995059,12.6175182 213.102114,18.3927007 210.185287,26.0510949 L208.473236,30.5080292 C207.522097,32.9562044 208.409827,33.6467153 210.502333,33.4583942 L212.150974,33.3328467 L211.770519,40.3007299 C210.185287,41.8072993 207.078232,42.8116788 204.288224,42.8116788 C198.581389,42.8116788 196.045018,38.8569343 198.835026,31.8890511 L200.483667,27.7459854 C201.878671,24.2934307 201.434806,22.4729927 198.581389,22.4729927 C196.045018,22.4729927 193.508647,23.979562 192.874554,30.9474453 L191.796596,42.2467153 C190.147955,42.4350365 187.92863,42.5605839 186.406808,42.5605839 C182.158386,42.5605839 180.129289,41.6817518 180.129289,39.4218978 C180.129289,38.5430657 180.382926,37.350365 181.017019,35.9693431 L183.870436,29.5036496 L187.10431,9.66715328 L183.743618,8.28613139 Z M224.262147,26.1138686 C229.842163,26.4277372 232.822399,25.1094891 232.822399,22.9751825 C232.822399,21.5313869 231.681032,20.9036496 229.842163,20.9036496 C227.305792,20.9036496 224.642602,22.9124088 224.262147,26.1138686 Z M237.451276,32.6423358 L238.846281,39.2335766 C236.183091,41.7445255 231.998079,43 227.813066,43 C220.520999,43 215.004392,38.919708 215.004392,29.8175182 C215.004392,19.459854 222.106231,12.4919708 230.98353,12.4919708 C237.007411,12.4919708 241.50947,15.6934307 241.50947,22.0963504 C241.50947,28.059854 237.13423,31.6379562 228.447159,31.6379562 C227.115564,31.6379562 225.72056,31.5751825 224.198737,31.3868613 C224.008509,33.5211679 225.910788,34.7766423 229.651935,34.7766423 C232.568762,34.7766423 235.42218,33.9605839 237.451276,32.6423358 Z M244.299478,21.8452555 L248.104035,23.4145985 L247.406533,29.5036496 L244.553116,35.9693431 C243.919023,37.350365 243.601976,38.480292 243.601976,39.3591241 C243.601976,41.6189781 245.631073,42.4350365 250.386769,42.4350365 C252.09882,42.4350365 253.874279,42.3722628 255.269284,42.2467153 L256.157013,31.9518248 C256.727697,25.4233577 258.376338,24.0423358 261.673621,24.0423358 C262.751578,24.0423358 263.702718,24.1678832 264.463629,24.2934307 C265.161131,21.5941606 266.492726,15.9445255 267,13.3080292 C266.302498,12.9941606 265.22454,12.8058394 263.766127,12.8058394 C259.644524,12.8058394 257.234971,15.0029197 255.205874,20.0248175 L254.952237,19.8992701 L256.537469,13.2452555 L256.283832,13.0569343 C253.049959,13.1824818 248.040626,13.2452555 245.314027,13.2452555 L244.299478,21.8452555 Z" id="Searcher"></path>
            </g>
        </g>
    </g>
</svg>