<?xml version="1.0" encoding="UTF-8"?>
<svg width="220px" height="61px" viewBox="0 0 220 61" version="1.1" xmlns="http://www.w3.org/2000/svg" xmlns:xlink="http://www.w3.org/1999/xlink">
    <!-- Generator: Sketch 47.1 (45422) - http://www.bohemiancoding.com/sketch -->
    <title>Group 4</title>
    <desc>Created with Sketch.</desc>
    <defs></defs>
    <g id="Page-1" stroke="none" stroke-width="1" fill="none" fill-rule="evenodd">
        <g id="Desktop-HD" transform="translate(-737.000000, -1908.000000)" fill="#C79ABF">
            <g id="Group-4" transform="translate(737.000000, 1908.000000)">
                <g id="WilsonLam_signature" fill-rule="nonzero">
                    <path d="M0.383638169,43.1433988 L3.69365017,36.596808 L9.29076492,23.3799762 L9.69177253,22.9712436 L10.082585,22.4972512 L11.1632666,20.0139431 C11.1632666,20.0139431 16.4783166,11.4546019 18.1503145,12.248024 C18.1503145,12.248024 19.5266542,12.1484169 15.4961878,19.5056034 L13.3314264,25.2450333 L10.3102758,29.7410917 L9.01549698,31.8294061 L6.06571216,35.9064278 C6.06571216,35.9064278 2.62316374,40.9760857 1.04971861,41.5737283 C1.04971861,41.5737283 -1.31214827,46.6433863 1.04971861,44.4554648 C3.41158549,42.2675433 8.98151328,34.0173276 9.20580568,33.5227268 C9.43009807,33.028126 10.5005845,32.3308763 7.84645783,38.4927777 C5.19233117,44.654679 6.2730127,42.6659717 2.43625341,50.9161874 C-1.40050588,59.1664031 0.665702847,60.5574678 0.665702847,60.5574678 C0.665702847,60.5574678 1.74638438,63.4392043 5.38603824,54.4951736 C9.02569209,45.5511429 21.5147004,25.4717253 21.5147004,25.4717253 C21.5147004,25.4717253 23.0881455,24.3794819 19.5470444,31.4344124 L12.9372155,48.7317007 C12.9372155,48.7317007 9.97043884,56.9750469 10.4801943,57.7719037 C10.9899497,58.5687605 11.0715106,62.4431333 14.0212954,58.1703321 C16.9710802,53.897531 16.7671781,51.5103953 16.7671781,51.5103953 L20.5053846,43.3597867 L32.1108169,18.0149316 L40.0799936,5.38887294 C40.0799936,5.38887294 41.2592278,5.09005164 39.1964175,8.27060941 C37.1336071,11.4511672 35.6553164,16.3216109 35.6553164,16.3216109 L29.9528521,28.0512057 L20.2029297,46.0423089 L18.2488672,50.5074548 C18.2488672,50.5074548 16.6516335,57.7650343 20.2029297,53.9868339 C23.754226,50.2086335 26.7074092,45.3381898 26.7074092,45.3381898 L30.6427212,39.9697105 C30.6427212,39.9697105 32.314719,37.9810032 30.6427212,43.4490896 C28.9707233,48.917176 27.5841885,50.9024485 27.5841885,50.9024485 C27.1595745,52.5994111 26.8316592,54.3196026 26.6020597,56.0545399 C26.3064016,58.537848 29.1576337,57.3459975 30.1431608,54.8626894 C31.128688,52.3793814 36.2398359,41.74203 36.2398359,41.74203 L38.6968572,37.5688359 L41.554886,33.6188992 L42.7341203,32.296529 L43.2268838,32.296529 L43.2268838,35.8033859 L42.4384621,37.7920932 L41.4563333,41.1752999 L40.5727572,43.7582151 L39.6891811,46.2415231 C39.6891811,46.2415231 36.7393963,57.5761243 40.6713099,53.0010671 C41.852705,50.7733859 42.8375123,48.444788 43.614298,46.0423089 C43.614298,46.0423089 45.1877431,43.0609654 47.7433171,41.0722581 C47.7433171,41.0722581 49.4153149,44.4520301 49.3167622,47.1345523 C49.3167622,47.1345523 50.98876,57.1742611 55.0192264,52.2042103 C59.0496928,47.2341594 60.1167808,47.2341594 60.1167808,47.2341594 C60.1167808,47.2341594 65.3298798,56.4770114 72.6057891,50.0162888 L73,48.1271886 C73,48.1271886 68.7724282,52.6988111 65.2313271,50.1158959 C61.6902259,47.5329807 62.7743058,45.7434876 60.7080971,46.0388742 C58.6418884,46.3342608 58.9375466,45.7400529 55.3964454,48.9206107 L53.0345785,51.5035258 C53.0345785,51.5035258 52.2461568,53.1934118 50.5775573,44.843589 C48.9089578,36.4937662 46.0543274,40.1036649 45.2659056,42.3602809 L43.2982496,44.4485953 C43.2982496,44.4485953 41.3305936,50.0162888 40.6441229,50.3116754 C39.9576523,50.6070619 40.3484648,48.8210036 44.1852241,36.2979867 C44.1852241,36.2979867 45.6601165,29.737657 42.5132262,31.6267572 L53.7278459,10.6543104 C53.7278459,10.6543104 53.9249514,9.26324569 55.0056329,6.9757171 L56.8747362,5.37856876 L58.9409449,1.31185127 C58.9409449,1.31185127 58.6554819,-0.64250874 58.1525232,0.21960789 C42.520023,26.9589623 34.4522935,42.662537 34.4522935,42.662537 L30.8364282,51.3111811 L28.4745614,54.7905602 C28.4745614,54.7905602 26.9011162,57.0780888 29.8509011,47.4368084 L31.9171098,42.549191 C31.9171098,42.549191 33.4905549,37.5791401 32.8992386,37.7783543 C32.3079223,37.9775685 33.4905549,35.5904328 28.5731141,40.6600908 C28.5731141,40.6600908 25.8204347,46.3273913 21.3923591,50.6001925 C21.3923591,50.6001925 16.8691291,57.0609151 21.2938064,47.1208134 L26.5103037,37.3970995 L33.307043,24.4756543 L36.5083071,17.1322066 L40.277099,9.26668042 L41.7519914,5.58808715 C41.7519914,5.58808715 44.3075654,-0.773028389 38.9007593,4.49584377 L34.0988631,12.5468453 L24.756745,31.2351982 L20.4136287,41.968722 L16.0875041,51.3111811 L14.6126117,55.0893815 L12.8420612,57.4765172 C12.8420612,57.4765172 11.1700633,60.2586465 13.0391666,53.3994955 C14.9082699,46.5403444 23.3668118,24.9702551 23.3668118,24.9702551 C23.3668118,24.9702551 28.3828054,10.7573522 33.3002462,5.09005164 C33.3002462,5.09005164 33.0045881,3.00173726 31.3325902,4.69162324 C29.6605924,6.38150922 15.5981389,33.3166431 15.5981389,33.3166431 L10.5005845,42.8583165 L6.54488227,50.2189377 L4.1932105,55.0893815 L2.02844906,58.8675818 C2.02844906,58.8675818 1.34877514,60.0594323 3.20768332,51.8092166 L7.43185674,42.0683291 L14.8063188,25.0698622 L17.3618927,19.0075679 C17.3618927,19.0075679 19.9174667,13.0448808 20.2131248,9.36628752 C20.2131248,9.36628752 19.9174667,8.56943071 14.1164498,14.5183789 C14.1164498,14.5183789 11.2652177,17.7985438 10.2796905,19.6704704 C9.29416329,21.5423969 4.28156811,32.7911298 4.28156811,32.7911298 L0.383638169,43.1433988 Z" id="Shape"></path>
                    <polygon id="Shape" points="34.5766667 32 34 32.78 34.5766667 33 35 32"></polygon>
                </g>
                <path d="M97.31,28.09 L98.498,28.09 L101.972,17.866 L105.428,28.09 L106.634,28.09 L111.134,15.4 L109.64,15.4 L106.04,25.894 L102.584,15.364 L101.414,15.364 L97.958,25.894 L94.358,15.4 L92.81,15.4 L97.31,28.09 Z M113.834,28 L115.256,28 L115.256,15.4 L113.834,15.4 L113.834,28 Z M118.946,28 L127.46,28 L127.46,26.686 L120.368,26.686 L120.368,15.4 L118.946,15.4 L118.946,28 Z M134.408,28.18 C136.91,28.18 138.71,26.776 138.71,24.616 L138.71,24.58 C138.71,22.654 137.414,21.628 134.606,21.016 C131.834,20.422 131.186,19.756 131.186,18.568 L131.186,18.532 C131.186,17.398 132.23,16.498 133.868,16.498 C135.164,16.498 136.334,16.912 137.504,17.866 L138.332,16.768 C137.054,15.742 135.74,15.22 133.904,15.22 C131.51,15.22 129.764,16.678 129.764,18.658 L129.764,18.694 C129.764,20.764 131.096,21.7 133.994,22.33 C136.64,22.888 137.27,23.554 137.27,24.724 L137.27,24.76 C137.27,26.002 136.154,26.902 134.462,26.902 C132.716,26.902 131.456,26.308 130.142,25.12 L129.26,26.164 C130.772,27.514 132.41,28.18 134.408,28.18 Z M147.458,28.216 C143.624,28.216 141.05,25.21 141.05,21.736 L141.05,21.7 C141.05,18.226 143.66,15.184 147.494,15.184 C151.328,15.184 153.902,18.19 153.902,21.664 L153.902,21.7 C153.902,25.174 151.292,28.216 147.458,28.216 Z M147.494,26.902 C150.374,26.902 152.426,24.598 152.426,21.736 L152.426,21.7 C152.426,18.838 150.338,16.498 147.458,16.498 C144.578,16.498 142.526,18.802 142.526,21.664 L142.526,21.7 C142.526,24.562 144.614,26.902 147.494,26.902 Z M156.908,28 L158.294,28 L158.294,17.668 L166.43,28 L167.564,28 L167.564,15.4 L166.178,15.4 L166.178,25.498 L158.24,15.4 L156.908,15.4 L156.908,28 Z M176.258,28 L185.312,28 L185.312,25.48 L179.03,25.48 L179.03,15.4 L176.258,15.4 L176.258,28 Z M186.32,28 L191.72,15.31 L194.276,15.31 L199.676,28 L196.778,28 L195.626,25.174 L190.298,25.174 L189.146,28 L186.32,28 Z M191.288,22.726 L194.636,22.726 L192.962,18.64 L191.288,22.726 Z M201.62,28 L204.338,28 L204.338,19.828 L207.848,25.156 L207.92,25.156 L211.466,19.774 L211.466,28 L214.22,28 L214.22,15.4 L211.232,15.4 L207.92,20.728 L204.608,15.4 L201.62,15.4 L201.62,28 Z M96.256,48.07 L96.844,48.07 L99.714,39.558 L102.584,48.07 L103.172,48.07 L106.728,38.2 L105.972,38.2 L102.892,46.922 L100.022,38.172 L99.462,38.172 L96.592,46.922 L93.512,38.2 L92.7,38.2 L96.256,48.07 Z M108.884,48 L115.926,48 L115.926,47.328 L109.612,47.328 L109.612,43.394 L115.226,43.394 L115.226,42.722 L109.612,42.722 L109.612,38.872 L115.856,38.872 L115.856,38.2 L108.884,38.2 L108.884,48 Z M118.264,48 L118.264,38.2 L122.31,38.2 C123.416,38.2 124.312,38.522 124.858,39.068 C125.264,39.474 125.488,39.992 125.488,40.608 L125.488,40.636 C125.488,41.966 124.62,42.638 123.822,42.96 C124.998,43.268 126.034,43.94 126.034,45.298 L126.034,45.326 C126.034,46.964 124.634,48 122.52,48 L118.264,48 Z M118.992,42.722 L122.226,42.722 C123.696,42.722 124.746,42.008 124.746,40.706 L124.746,40.678 C124.746,39.6 123.864,38.872 122.296,38.872 L118.992,38.872 L118.992,42.722 Z M118.992,47.328 L122.548,47.328 C124.228,47.328 125.292,46.558 125.292,45.326 L125.292,45.298 C125.292,44.094 124.242,43.394 122.31,43.394 L118.992,43.394 L118.992,47.328 Z M132.572,48 L132.572,38.2 L135.834,38.2 C138.914,38.2 141.042,40.314 141.042,43.072 L141.042,43.1 C141.042,45.858 138.914,48 135.834,48 L132.572,48 Z M133.3,47.328 L135.834,47.328 C138.564,47.328 140.286,45.466 140.286,43.128 L140.286,43.1 C140.286,40.776 138.564,38.872 135.834,38.872 L133.3,38.872 L133.3,47.328 Z M143.52,48 L150.562,48 L150.562,47.328 L144.248,47.328 L144.248,43.394 L149.862,43.394 L149.862,42.722 L144.248,42.722 L144.248,38.872 L150.492,38.872 L150.492,38.2 L143.52,38.2 L143.52,48 Z M156.372,48.07 L157.016,48.07 L161.328,38.2 L160.558,38.2 L156.708,47.216 L152.872,38.2 L152.06,38.2 L156.372,48.07 Z M163.4,48 L170.442,48 L170.442,47.328 L164.128,47.328 L164.128,43.394 L169.742,43.394 L169.742,42.722 L164.128,42.722 L164.128,38.872 L170.372,38.872 L170.372,38.2 L163.4,38.2 L163.4,48 Z M172.78,48 L179.262,48 L179.262,47.328 L173.508,47.328 L173.508,38.2 L172.78,38.2 L172.78,48 Z M185.366,48.168 C182.398,48.168 180.452,45.802 180.452,43.128 L180.452,43.1 C180.452,40.426 182.426,38.032 185.394,38.032 C188.362,38.032 190.308,40.398 190.308,43.072 L190.308,43.1 C190.308,45.774 188.334,48.168 185.366,48.168 Z M185.394,47.51 C187.816,47.51 189.552,45.55 189.552,43.128 L189.552,43.1 C189.552,40.678 187.788,38.69 185.366,38.69 C182.944,38.69 181.208,40.65 181.208,43.072 L181.208,43.1 C181.208,45.522 182.972,47.51 185.394,47.51 Z M192.786,48 L192.786,38.2 L196.342,38.2 C198.498,38.2 199.982,39.306 199.982,41.196 L199.982,41.224 C199.982,43.282 198.204,44.346 196.16,44.346 L193.514,44.346 L193.514,48 L192.786,48 Z M193.514,43.674 L196.202,43.674 C198.022,43.674 199.254,42.722 199.254,41.266 L199.254,41.238 C199.254,39.684 198.05,38.872 196.286,38.872 L193.514,38.872 L193.514,43.674 Z M202.138,48 L209.18,48 L209.18,47.328 L202.866,47.328 L202.866,43.394 L208.48,43.394 L208.48,42.722 L202.866,42.722 L202.866,38.872 L209.11,38.872 L209.11,38.2 L202.138,38.2 L202.138,48 Z M211.518,48 L211.518,38.2 L215.634,38.2 C216.838,38.2 217.804,38.578 218.392,39.166 C218.854,39.628 219.134,40.286 219.134,40.986 L219.134,41.014 C219.134,42.652 217.916,43.59 216.264,43.814 L219.498,48 L218.574,48 L215.452,43.94 L212.246,43.94 L212.246,48 L211.518,48 Z M212.246,43.282 L215.55,43.282 C217.188,43.282 218.406,42.456 218.406,41.042 L218.406,41.014 C218.406,39.698 217.37,38.872 215.592,38.872 L212.246,38.872 L212.246,43.282 Z" id="Wilson-Lam-Web-Devel"></path>
            </g>
        </g>
    </g>
</svg>