<?xml version="1.0" encoding="UTF-8"?>
<svg width="74px" height="74px" viewBox="0 0 74 74" version="1.1" xmlns="http://www.w3.org/2000/svg" xmlns:xlink="http://www.w3.org/1999/xlink">
    <!-- Generator: Sketch 47.1 (45422) - http://www.bohemiancoding.com/sketch -->
    <title>Wilson Lam</title>
    <desc>Created with Sketch.</desc>
    <defs>
        <rect id="path-1" x="0" y="0" width="74" height="74"></rect>
    </defs>
    <g id="Page-1" stroke="none" stroke-width="1" fill="none" fill-rule="evenodd">
        <g id="Desktop-HD" transform="translate(-772.000000, -2632.000000)">
            <g id="Group-6" transform="translate(467.000000, 2632.000000)">
                <g id="Wilson-Lam" transform="translate(305.000000, 0.000000)">
                    <mask id="mask-2" fill="white">
                        <use xlink:href="#path-1"></use>
                    </mask>
                    <use id="Mask" fill="#C8A4C3" xlink:href="#path-1"></use>
                    <path d="M8.92,54.07 L10.404,54.07 L12.812,47.028 L15.22,54.07 L16.704,54.07 L20.12,44.2 L18.314,44.2 L15.976,51.466 L13.568,44.172 L12.112,44.172 L9.704,51.466 L7.366,44.2 L5.504,44.2 L8.92,54.07 Z M21.982,54 L23.704,54 L23.704,44.2 L21.982,44.2 L21.982,54 Z M26.322,54 L33.196,54 L33.196,52.432 L28.044,52.432 L28.044,44.2 L26.322,44.2 L26.322,54 Z M38.418,54.14 C40.476,54.14 41.918,53.048 41.918,51.214 L41.918,51.186 C41.918,49.562 40.84,48.82 38.768,48.316 C36.892,47.868 36.444,47.532 36.444,46.776 L36.444,46.748 C36.444,46.104 37.032,45.586 38.04,45.586 C38.936,45.586 39.818,45.936 40.7,46.594 L41.624,45.292 C40.63,44.494 39.496,44.06 38.068,44.06 C36.122,44.06 34.722,45.222 34.722,46.902 L34.722,46.93 C34.722,48.736 35.898,49.352 37.984,49.856 C39.804,50.276 40.196,50.654 40.196,51.354 L40.196,51.382 C40.196,52.124 39.524,52.614 38.46,52.614 C37.242,52.614 36.304,52.152 35.366,51.34 L34.33,52.572 C35.506,53.622 36.92,54.14 38.418,54.14 Z M48.624,54.168 C45.614,54.168 43.514,51.886 43.514,49.128 L43.514,49.1 C43.514,46.342 45.642,44.032 48.652,44.032 C51.662,44.032 53.762,46.314 53.762,49.072 L53.762,49.1 C53.762,51.858 51.634,54.168 48.624,54.168 Z M48.652,52.586 C50.598,52.586 51.956,51.032 51.956,49.128 L51.956,49.1 C51.956,47.196 50.57,45.614 48.624,45.614 C46.678,45.614 45.32,47.168 45.32,49.072 L45.32,49.1 C45.32,51.004 46.706,52.586 48.652,52.586 Z M55.848,54 L57.542,54 L57.542,47.028 L62.946,54 L64.388,54 L64.388,44.2 L62.694,44.2 L62.694,50.976 L57.444,44.2 L55.848,44.2 L55.848,54 Z M6.456,68 L12.938,68 L12.938,67.328 L7.184,67.328 L7.184,58.2 L6.456,58.2 L6.456,68 Z M14.282,68 L18.846,58.13 L19.546,58.13 L24.11,68 L23.312,68 L22.066,65.256 L16.284,65.256 L15.038,68 L14.282,68 Z M16.592,64.598 L21.758,64.598 L19.182,58.928 L16.592,64.598 Z M26.182,68 L26.882,68 L26.882,59.488 L30.76,65.13 L30.816,65.13 L34.694,59.488 L34.694,68 L35.422,68 L35.422,58.2 L34.736,58.2 L30.802,63.996 L26.868,58.2 L26.182,58.2 L26.182,68 Z" fill="#261736" mask="url(#mask-2)"></path>
                </g>
            </g>
        </g>
    </g>
</svg>